<svg xmlns="http://www.w3.org/2000/svg" width="150" height="136.816" viewBox="0 0 150 136.816"><g transform="translate(-309.073 -440.714)"><path d="M380.335,566.073h.891v1.186a2.72,2.72,0,0,1-1.129.23c-1.091,0-1.646-.833-1.646-2.355,0-1.282.527-2.162,1.685-2.162a2.884,2.884,0,0,1,1.577.412l.536-.948a3.621,3.621,0,0,0-2.123-.574c-2.021,0-3,1.33-3,3.292,0,2.048.908,3.407,2.842,3.407a5.39,5.39,0,0,0,2.413-.595v-2.824h-2.117Z" fill="#fff"/><path d="M385.411,563.68a2.176,2.176,0,0,0-2.2,2.432c0,1.606.795,2.448,2.2,2.448s2.2-.851,2.2-2.448A2.187,2.187,0,0,0,385.411,563.68Zm0,3.961c-.613,0-.909-.438-.909-1.529,0-1.121.325-1.524.909-1.524s.918.394.918,1.524S386.024,567.641,385.411,567.641Z" fill="#fff"/><path d="M390.954,563.679a1.653,1.653,0,0,0-1.243.574l.086-.755v-1.635h-1.253v6.6h.668l.229-.565a1.543,1.543,0,0,0,1.359.662c1.091,0,2.048-.833,2.048-2.45C392.848,564.465,392.055,563.679,390.954,563.679Zm-.306,3.962a1.131,1.131,0,0,1-.851-.477v-2.192a1.322,1.322,0,0,1,.871-.374c.573,0,.928.393.928,1.513S391.192,567.641,390.648,567.641Z" fill="#fff"/><path d="M393.644,564.58l.536.114v3.77h1.243v-4.688h-1.779Z" fill="#fff"/><rect width="1.264" height="1.137" transform="translate(394.143 561.862)" fill="#fff"/><path d="M398.564,563.68c-1.5,0-2.191.986-2.191,2.431a2.178,2.178,0,0,0,2.317,2.45,3.779,3.779,0,0,0,1.76-.469l-.239-.882a3.2,3.2,0,0,1-1.368.4,1.064,1.064,0,0,1-1.207-1.158h2.91v-.544C400.546,564.732,399.981,563.68,398.564,563.68Zm-.928,2.037c0-.555.25-1.119.87-1.119.653,0,.843.518.843,1.119Z" fill="#fff"/><path d="M402.529,564.407h-.037c-.039-.208-.088-.412-.135-.631h-.872v4.688h1.245v-3.4a1.348,1.348,0,0,1,.841-.317,2.086,2.086,0,0,1,.585.075c.017-.353.017-.707.028-1.061a1.967,1.967,0,0,0-.537-.068A1.254,1.254,0,0,0,402.529,564.407Z" fill="#fff"/><path d="M407.44,563.68a1.945,1.945,0,0,0-1.484.631l-.191-.535H404.9v4.688h1.254v-3.54a1.527,1.527,0,0,1,.824-.287c.571,0,.842.335.842,1.042v2.785h1.271v-2.9C409.094,564.379,408.627,563.68,407.44,563.68Z" fill="#fff"/><path d="M412.129,563.68a2.177,2.177,0,0,0-2.2,2.432c0,1.606.8,2.448,2.2,2.448s2.2-.851,2.2-2.448A2.186,2.186,0,0,0,412.129,563.68Zm0,3.961c-.61,0-.906-.438-.906-1.529,0-1.121.325-1.524.906-1.524s.921.394.921,1.524S412.742,567.641,412.129,567.641Z" fill="#fff"/><path d="M420.3,563.278a2.812,2.812,0,0,0,.118.862,1.524,1.524,0,0,0-1.169-.46c-1.139,0-2.02.89-2.02,2.44,0,1.675.852,2.44,1.915,2.44a1.522,1.522,0,0,0,1.244-.612l.143.516h1.016v-6.6H420.3Zm0,3.971a1.222,1.222,0,0,1-.868.4c-.593,0-.949-.42-.949-1.539,0-1.091.374-1.494.967-1.494a1.659,1.659,0,0,1,.85.23Z" fill="#fff"/><path d="M424.682,563.68c-1.5,0-2.191.986-2.191,2.431a2.177,2.177,0,0,0,2.315,2.45,3.78,3.78,0,0,0,1.761-.469l-.238-.882a3.225,3.225,0,0,1-1.371.4,1.063,1.063,0,0,1-1.205-1.158h2.909v-.544C426.662,564.732,426.1,563.68,424.682,563.68Zm-.929,2.037c0-.555.249-1.119.871-1.119.651,0,.842.518.842,1.119Z" fill="#fff"/><path d="M432.472,567.46c-1.051,0-1.586-.794-1.586-2.287,0-1.416.535-2.211,1.607-2.211a2.779,2.779,0,0,1,1.588.44l.48-.995a4.052,4.052,0,0,0-2.2-.544c-1.828,0-2.784,1.338-2.784,3.321,0,2.153.965,3.377,2.784,3.377a3.818,3.818,0,0,0,2.219-.688l-.4-1.006A3,3,0,0,1,432.472,567.46Z" fill="#fff"/><path d="M437.9,563.68a1.617,1.617,0,0,0-1.327.64,2.815,2.815,0,0,0,.123-.725v-1.733h-1.254v6.6H436.7v-3.54a1.534,1.534,0,0,1,.825-.287.7.7,0,0,1,.773.756.481.481,0,0,1,.068.286v2.785h1.272v-2.9C439.634,564.379,439.252,563.68,437.9,563.68Z" fill="#fff"/><rect width="1.264" height="1.137" transform="translate(440.994 561.862)" fill="#fff"/><path d="M440.5,564.58l.537.114v3.77h1.243v-4.688H440.5Z" fill="#fff"/><path d="M444.652,567.153v-5.291h-1.234v5.359c0,.833.344,1.339,1.3,1.339a3.985,3.985,0,0,0,.688-.075V567.6C444.89,567.6,444.652,567.546,444.652,567.153Z" fill="#fff"/><path d="M448.233,563.68c-1.5,0-2.192.986-2.192,2.431a2.178,2.178,0,0,0,2.317,2.45,3.77,3.77,0,0,0,1.758-.469l-.238-.882a3.2,3.2,0,0,1-1.369.4,1.063,1.063,0,0,1-1.2-1.158h2.909v-.544C450.214,564.732,449.65,563.68,448.233,563.68Zm-.928,2.037c0-.555.247-1.119.87-1.119.65,0,.842.518.842,1.119Z" fill="#fff"/><path d="M459.07,443.045v-2.331h-150v2.331l0,132.155v2.33h150V575.2ZM311.406,575.2l0-132.155h58.376l0,132.155Zm60.706,0,0-132.155h84.63l0,132.155Z" fill="#fff"/><path d="M347.025,463.082a.42.42,0,0,0,.119-.335.344.344,0,0,0-.156-.245c-.3-.2-.976-.617-.976-.617l-.054-.048H345.9c-.074,0-.129.044-.222.114a1.743,1.743,0,0,1-1.142.413,2.5,2.5,0,0,1-.335-.026,3.71,3.71,0,0,1-.849-.315c-.174-.091-.39-.186-.478-.226l-.039-.015a4.435,4.435,0,0,0-3.637,0l-.041.015-.218.1-.53.251a2.473,2.473,0,0,1-.58.19,2.37,2.37,0,0,1-.333.026,1.753,1.753,0,0,1-1.143-.413c-.093-.07-.151-.114-.22-.114l-.053.006-.032.021s-.693.426-.979.624a.366.366,0,0,0-.178.261.411.411,0,0,0,.119.333,4.689,4.689,0,0,1,1.063,2.807,4.108,4.108,0,0,1-.7,2.505,2.937,2.937,0,0,0,2.881,4.427c.172,0,1.729.028,2.266,1.024.023.04.273.437.372.634l.122.238.119-.238c.1-.194.347-.589.384-.644.527-.986,2.084-1.014,2.258-1.014a2.936,2.936,0,0,0,2.879-4.427,4.152,4.152,0,0,1-.7-2.529A4.66,4.66,0,0,1,347.025,463.082Zm-1.88,2.769-2.722,1.949,1.042,3.079-2.613-1.982-2.61,1.982,1.04-3.079-2.721-1.947-.01,0h3.358l.943-3.117.943,3.117h3.357Z" fill="#fff"/><path d="M333.555,457.162a3.947,3.947,0,0,0,2.288.337,1.691,1.691,0,0,0,.937-.517c.1-.1.169-.258.311-.26a1.848,1.848,0,0,0,1.182,1.882c.006.054.024.106.037.187a1.708,1.708,0,0,0,1.464,1.473.6.6,0,0,0-.158.9,4.095,4.095,0,0,1,2.8,0,.58.58,0,0,0,.184-.792c-.107-.21-.385-.231-.264-.256,1.493-.351,2.291-2.529,2.245-3.365a2.97,2.97,0,0,0,3.738-.152,2.67,2.67,0,0,0-.184-3.842,2.435,2.435,0,0,0-2.74.038,1.386,1.386,0,0,0-1.138-.716,2.76,2.76,0,0,0-.564-1.766,2.863,2.863,0,0,0-3.606.015,2.536,2.536,0,0,0-3.356,2.678,4.4,4.4,0,0,0-2.225-.374,2.612,2.612,0,0,0-1.473.844,3.787,3.787,0,0,0-.329.521,2.464,2.464,0,0,0,.847,3.164Z" fill="#fff"/><path d="M362.923,478.591a1.338,1.338,0,0,0-.851-1.832,1.167,1.167,0,0,0-1,.1l-.014.011s-.008.005-.008.01a.515.515,0,0,0-.1.077.694.694,0,0,0,.5,1.177.709.709,0,0,0,.4-.126.7.7,0,0,0,.275-.412.673.673,0,0,1,.256.324c.39,1.234-1,1.677-1,1.677a5.423,5.423,0,0,1-4.937-.662l.536-.286a1.191,1.191,0,0,1,.485-.106.411.411,0,0,0-.011.091.608.608,0,0,0,1.216,0,.563.563,0,0,0-.123-.372c-.358-.54-1.6-.183-1.6-.183a2.224,2.224,0,0,0,.044-1.745,1.675,1.675,0,0,0-1.921-.806.831.831,0,0,0-.569.561c-.183.928.587,1.007.587,1.007.554.028.559-.42.559-.42.072-.433-.541-.455-.541-.455.517-.909,2.146.582,1.081,1.9-.111.132-.213.044-.213.044a21.681,21.681,0,0,1-3.318-1.911c-.045-.519-.5-.783-.413-.921.075-.031.345.1.5-.121.054-.083.179-.9.281-1.487a5.378,5.378,0,0,0,3.419.443.393.393,0,0,0,.27-.388c.026-.643-1.639-4.423-1.685-5.757.787.389,1.273-.825,1.415-1.195,1.057.482,1.421,10.293,2.235,10.623.407.166.567-.5.605-.626a32.174,32.174,0,0,0,1.267-10.06,27.377,27.377,0,0,0-.85-6.082c-.331-1.134-.973-3.448-2.469-3.764a1.064,1.064,0,0,0-1.22,1.091c.011.508.362.754.206,1.253a4.269,4.269,0,0,0-.466,1.048c-.09.364.233.513.129.9-.473-.071-.71.344-1.455.154.485-.225.492-1.608-.1-1.845-.088-.037-.189-.05-.206-.13a1.906,1.906,0,0,0,.288-.4,1.851,1.851,0,0,0,.068-1.782c.246.021.5-.431.537-.791l.005,0v-.031a1.67,1.67,0,0,1,.132-.707.192.192,0,0,0-.083-.25.189.189,0,0,0-.245.094c-.147.31-.5.138-.349-.173a.19.19,0,0,0-.084-.248.183.183,0,0,0-.242.09c-.141.3-.482.131-.341-.167a.18.18,0,1,0-.325-.154c-.145.306-.5.137-.352-.169a.193.193,0,0,0-.083-.253.191.191,0,0,0-.242.093,1.472,1.472,0,0,1-.427.591c-.331.058-.243.439-.2.7a.894.894,0,0,0-1.1.761h-.07c-.511.012-1,.277-.963.748a.822.822,0,0,0,.452.605c.055-.018-.028-.284.238-.3a.7.7,0,0,1,.648.424c.053.263-.163.9.673.989,0,0-.007.128-.019.264a2.314,2.314,0,0,0-.675.009c-.527.085-1.251.382-1.428.9a1.042,1.042,0,0,0-.034.4c.011.107.111.241.1.372a.694.694,0,0,1-.165.237,1.622,1.622,0,0,1-.989.468,1.2,1.2,0,0,1-.944-.452c-.531-.713.156-1.949.146-2.409-.031-1.225-1.578-.5-2.191-.176a6.021,6.021,0,0,0-1.8,1.608,5.147,5.147,0,0,0-.721,1.107c-.027.065-.086.076-.151.074a3.767,3.767,0,0,0,1.3.353,2.088,2.088,0,0,0,1.467-.395.349.349,0,0,1,.211-.076.345.345,0,0,1,.234.1c.006.009.084.072.176.145.054.044.122.1.194.154l.112.088.322.251.061.046c.12.093.24.185.346.264.126.1.246.184.316.231l.005,0a.156.156,0,0,1,.054.086.237.237,0,0,1-.06.153s-.067.074-.165.2a6.4,6.4,0,0,0-.815,1.394,1.883,1.883,0,0,0,1.47,1.109.768.768,0,0,0,.865-.628c.011.008.04.044.045.046.066-.06.373,1.6.777,2.049-.379.176-.965.771-.646,2.408a14.9,14.9,0,0,1-1.162-.968,1.758,1.758,0,0,0-1.413-1.216,7.16,7.16,0,0,0,.627,1.386,3.984,3.984,0,0,1,.394,2.234c.388-.4.328-1.489.328-1.489a.357.357,0,0,1,.086-.036c.079-.006.468.753,1.14.911a8.669,8.669,0,0,0,2.809,3.046c-.018.361.026,1.224-.207,1.224-.748.166-1.438-.338-2.1-.3l-.115-.054c-2.836-1.366-6.575,1.567-7.2,2.136-.328.3-.708-.111-.708-.111a1.046,1.046,0,0,0-1.608,0s-.382.413-.711.111c-.589-.54-3.978-3.164-6.748-2.269-.008-.151-.381-.228-.486-.267a2.917,2.917,0,0,1-.55-.3,3.811,3.811,0,0,0-1.135-.1,1.389,1.389,0,0,1-.44-.161,4.271,4.271,0,0,1-1.233-1.007c-.045-.066-.156-.217-.178-.242a1.811,1.811,0,0,1-.311-.587,4.243,4.243,0,0,1,.164-1.688c.06-.41.046-.436.083-.877a5.208,5.208,0,0,0,2.888-2.626c.039-.055.148-.279.148-.279.078.011.156.017.241.021.7.005,1.176-.388,1.946-.294,0,.042.1.366.6.57a3.092,3.092,0,0,0,.243,1.312c.043.068.1.126.133.183a5.272,5.272,0,0,0,.426-1.823.375.375,0,0,1-.059-.152,1.64,1.64,0,0,0-.94-1.308,4.455,4.455,0,0,1-.567-.261,2.055,2.055,0,0,1-.745-.741,2.142,2.142,0,0,0,.185-.2,4.327,4.327,0,0,0,.917-2.1c.376-.514,1.42-.313,1.817-.241a.872.872,0,0,1,.357.114c.111.077.137.255.293.322a1.2,1.2,0,0,0,.551,0,1.406,1.406,0,0,1,.166.3,1.132,1.132,0,0,0,.158.206,3.981,3.981,0,0,0,1.419-.407.241.241,0,0,1-.076-.065,1.65,1.65,0,0,0-.857-.637c-.389-.064-.47-.412-.843-.486a1.447,1.447,0,0,0-.536-.035,9.591,9.591,0,0,1-2.175-.26c-.732-.052-.755.448-1.022.861a2.606,2.606,0,0,1-.338.453c-.2.2-.436.2-.681.388l-.113-.3a2.529,2.529,0,0,0-.328-.764,2.618,2.618,0,0,0-1.735-1.31.894.894,0,0,1-.307-.169.149.149,0,0,1,0-.258c.252-.145.686-.094.972-.226.705-.328.455-.926.18-.974a6.479,6.479,0,0,1-1.121-.309c-.17-.108-.467-.645-.746-.777-.309-.083-.2-.589-.488-.7a.953.953,0,0,0-.505.141c-.012-.105-.088-.679-.4-.867-.237-.135-.323.075-.312.213.013.122.347.291.409.832-.057.037-.112.068-.17.11a1.081,1.081,0,0,0-.376-.707c-.237-.136-.323.075-.311.211.011.117.3.269.4.727-.071.057-.136.116-.2.177-.473-.131-.6-.452-.719-.474-.133-.029-.349.039-.239.288a1.1,1.1,0,0,0,.687.451c-.049.052-.089.1-.132.155-.548-.11-.683-.468-.8-.5s-.353.043-.241.289c.16.35.781.484.84.5a.6.6,0,0,0-.125.382c-.427-.049-1.185.18-1.041.684.141.1.645-.31,1.109-.08a1.694,1.694,0,0,0,.908.583c.171.135.2.379.277.6a5.007,5.007,0,0,0,.664,1.105c.263.4.537.818.812,1.166a.7.7,0,0,1,.047.341,10.581,10.581,0,0,1-1.638,1.443c-.389.366-4.065,3.163-4.527,4.383a2.572,2.572,0,0,0-.146.987c-.225.12-.717.315-.872.1-.285-.394.269-.693.148-1.075a.291.291,0,0,0-.407-.147,1.237,1.237,0,0,0,.136,2.084c.636.264.728-.422,1.221-.144.118.067,1.284,1.109,1.088,1.932a.987.987,0,0,1-.08.193c-.256.317-.682.562-.973.86-.607.385.576,2.8.478,4.045-.069.471.393.416.674,1.155a.851.851,0,0,0-.713.3.542.542,0,0,0-.122.372.606.606,0,0,0,1.212,0,.507.507,0,0,0-.006-.091,1.2,1.2,0,0,1,.486.106l.535.286a5.422,5.422,0,0,1-4.936.662s-1.388-.443-1-1.677a.671.671,0,0,1,.257-.324.692.692,0,0,0,.275.412.706.706,0,0,0,.4.126.7.7,0,0,0,.5-1.177.515.515,0,0,0-.1-.077l0-.006-.014-.011a1.166,1.166,0,0,0-1-.106,1.34,1.34,0,0,0-.851,1.832s-.9-.205-1.243.208a.505.505,0,0,0-.108.342v.015a.75.75,0,0,0,.1.295.527.527,0,0,0,.43.226.534.534,0,0,0,.408-.194l0-.006c.037-.047.148-.111.311.059,2.03,2.117,5.341,1.243,7.177-.175a11.133,11.133,0,0,1,2.152-1.651c.441.19.91.331,1.366.495a4.4,4.4,0,0,0,.838,2.7.992.992,0,0,1-1.392.431.722.722,0,0,1-.1-1.1s.367-.306.526.077a.358.358,0,0,0-.339.356.354.354,0,0,0,.707.02.871.871,0,0,0-.29-.778.918.918,0,0,0-.8-.218c-.771.12-1.206,1.732.315,2.4,0,0,1.2.545,1.813-.347,0,0-.01-.129.221.092,1.266,1.228,4.093.872,5.215.037a6.281,6.281,0,0,1,.6-.327.88.88,0,1,0,1.033-.891,1.856,1.856,0,0,0-1.4.331,6.111,6.111,0,0,1-.817.46,5.052,5.052,0,0,0,.6-1.739c1.232.136,2.5.225,3.807.254a3.724,3.724,0,0,1-.215,1.2s-.462.192-.473.518c0,0-.052.238.359.568a2.246,2.246,0,0,1,.387.589s.024.358.517.358a.429.429,0,0,0,.094-.01.493.493,0,0,0,.1.01c.494,0,.518-.358.518-.358a2.253,2.253,0,0,1,.386-.589c.41-.33.359-.568.359-.568-.008-.326-.474-.518-.474-.518a3.75,3.75,0,0,1-.215-1.2c1.311-.029,2.576-.117,3.808-.252a5.056,5.056,0,0,0,.6,1.736,6.221,6.221,0,0,1-.814-.46,1.868,1.868,0,0,0-1.4-.331.882.882,0,1,0,1.033.891,6.17,6.17,0,0,1,.6.327c1.119.835,3.949,1.191,5.216-.037.23-.221.22-.092.22-.092.617.892,1.815.347,1.815.347,1.519-.667,1.082-2.279.315-2.4a.928.928,0,0,0-.809.218.874.874,0,0,0-.288.778.354.354,0,0,0,.708-.02.36.36,0,0,0-.339-.356c.158-.383.526-.077.526-.077a.722.722,0,0,1-.1,1.1.993.993,0,0,1-1.392-.431,4.4,4.4,0,0,0,.839-2.694c.459-.164.93-.307,1.373-.5a11.191,11.191,0,0,1,2.146,1.648c1.835,1.418,5.144,2.292,7.177.175.162-.17.273-.106.309-.059,0,0,0,0,0,.006a.525.525,0,0,0,.839-.032.785.785,0,0,0,.1-.295v-.015a.517.517,0,0,0-.108-.342C363.827,478.386,362.923,478.591,362.923,478.591Zm-36.647-.429s-.1.088-.211-.044c-1.07-1.313.563-2.8,1.082-1.9,0,0-.615.022-.547.455,0,0,.011.448.563.42,0,0,.77-.079.587-1.007a.836.836,0,0,0-.57-.561,1.676,1.676,0,0,0-1.921.806,2.23,2.23,0,0,0-.134.706,1.147,1.147,0,0,0-.525-.256,6.63,6.63,0,0,1-.411-3.522,3.565,3.565,0,0,0,2.792-2.615,1.138,1.138,0,0,1,.682.822c.033.278-.1.568.067.795a4.578,4.578,0,0,0,1.1.861,22.029,22.029,0,0,0,1.817,1.28c.216.045.348-.115.536-.082a.4.4,0,0,1,.164.1,2.243,2.243,0,0,0,.262.219,13.975,13.975,0,0,0-1.6,1.246S329.492,476.57,326.276,478.162Zm5.064,1.465a3.066,3.066,0,0,1-.233.688,4.543,4.543,0,0,1-.49-1.863c.342.11.679.231,1.028.329A5.466,5.466,0,0,0,331.34,479.627Zm4.036,1.922a3.547,3.547,0,0,1-3.633-.678,8.273,8.273,0,0,1,.507-1.95,31,31,0,0,0,3.735.7C335.9,480.443,335.718,481.5,335.376,481.549Zm-2.128-4.184a2.422,2.422,0,0,1,1.665-.685,1.21,1.21,0,0,1,1.135,1.19C335,477.723,334.055,477.551,333.248,477.365ZM335.393,476a4.8,4.8,0,0,0-2.7,1.227c-.646-.162-1.229-.324-1.685-.467a3.243,3.243,0,0,1,.331-.54,4.471,4.471,0,0,1,5.1-.968C336.5,475.275,336.293,475.8,335.393,476Zm1.5,1.986c.138-1.3.234-2.4.707-2.4a.8.8,0,0,1,.574.33c.409.569,1.516,1.251,2.022,2.285C339.013,478.171,337.895,478.1,336.893,477.987Zm5.177.215c.505-1.034,1.612-1.716,2.024-2.285a.8.8,0,0,1,.573-.33c.474-.005.571,1.1.707,2.4C344.371,478.1,343.254,478.172,342.07,478.2Zm3.76-2.949a4.469,4.469,0,0,1,5.1.968,3.261,3.261,0,0,1,.333.544c-.455.144-1.038.3-1.683.466a4.8,4.8,0,0,0-2.7-1.23C345.975,475.8,345.762,475.275,345.83,475.253Zm1.526,1.427a2.426,2.426,0,0,1,1.668.688c-.809.186-1.758.357-2.806.5A1.211,1.211,0,0,1,347.356,476.68Zm-.464,4.869c-.342-.051-.521-1.105-.609-1.923a31.182,31.182,0,0,0,3.736-.7,8.236,8.236,0,0,1,.5,1.946A3.545,3.545,0,0,1,346.892,481.549Zm4.268-1.234a3.132,3.132,0,0,1-.234-.688,5.612,5.612,0,0,0-.3-.843c.349-.1.685-.215,1.026-.326A4.507,4.507,0,0,1,351.16,480.315Z" fill="#fff"/><path d="M379.022,451.12h.049c.157.873.3,1.5.412,1.976l1.115,4.932h2.339L384.1,453.1c.109-.473.255-1.1.4-1.976h.049l.169,6.908h1.794l-.315-8.181h-2.679s-1.066,4.133-1.611,6.763h-.037c-.472-2.642-1.369-6.763-1.369-6.763h-2.727l-.315,8.181h1.454Z" fill="#fff"/><rect width="1.6" height="1.442" transform="translate(388.317 449.666)" fill="#fff"/><path d="M388.366,458.028h1.575V452.09h-2.266v.994l.691.145Z" fill="#fff"/><path d="M392.958,453.544A1.92,1.92,0,0,1,394,453.18c.727,0,1.066.424,1.066,1.321v3.527h1.612v-3.672c0-1.5-.594-2.387-2.1-2.387a2.462,2.462,0,0,0-1.878.8l-.243-.678h-1.09v5.938h1.587Z" fill="#fff"/><rect width="1.6" height="1.442" transform="translate(398.411 449.666)" fill="#fff"/><path d="M398.46,458.028h1.575V452.09h-2.266v.994l.691.145Z" fill="#fff"/><path d="M403.029,457.022a2.76,2.76,0,0,1-1.406-.412l-.328,1.1a3.782,3.782,0,0,0,1.782.436c1.539,0,2.339-.836,2.339-1.915,0-1.939-2.569-1.66-2.569-2.581,0-.339.266-.546.812-.546a3.522,3.522,0,0,1,1.43.3l.218-1.152a4.769,4.769,0,0,0-1.672-.29c-1.6,0-2.267.787-2.267,1.66,0,2.024,2.533,1.672,2.533,2.738C403.9,456.731,403.55,457.022,403.029,457.022Z" fill="#fff"/><path d="M407.113,456.162c0,1.49.69,1.987,1.745,1.987a3.4,3.4,0,0,0,1.6-.4l-.242-1.163a2.14,2.14,0,0,1-.909.218.6.6,0,0,1-.63-.679v-2.908h1.587V452.09h-1.587v-1.54l-1.563.51v1.03h-.885v1.127h.885Z" fill="#fff"/><path d="M413.862,458.149a4.867,4.867,0,0,0,2.243-.582l-.3-1.114a3.983,3.983,0,0,1-1.746.5,1.346,1.346,0,0,1-1.526-1.466h3.7v-.691c0-1.491-.7-2.823-2.5-2.823-1.9,0-2.788,1.248-2.788,3.077C410.942,457.01,412.033,458.149,413.862,458.149Zm-.218-5.017c.825,0,1.055.654,1.055,1.418H412.53C412.53,453.847,412.857,453.132,413.644,453.132Z" fill="#fff"/><path d="M418.989,453.714a1.7,1.7,0,0,1,1.066-.4,2.648,2.648,0,0,1,.739.1l.037-1.346a2.706,2.706,0,0,0-.691-.085,1.591,1.591,0,0,0-1.418.909h-.036l-.17-.8h-1.1v5.938h1.576Z" fill="#fff"/><rect width="1.6" height="1.442" transform="translate(422.188 449.666)" fill="#fff"/><path d="M422.236,458.028h1.575V452.09h-2.266v.994l.691.145Z" fill="#fff"/><path d="M427.8,458.149c1.769,0,2.787-1.078,2.787-3.1a2.766,2.766,0,0,0-2.787-3.077c-1.818,0-2.788,1.332-2.788,3.077C425.011,457.082,426.017,458.149,427.8,458.149Zm0-5.029c.739,0,1.163.5,1.163,1.926s-.388,1.939-1.163,1.939-1.152-.557-1.152-1.939C426.647,453.629,427.059,453.12,427.8,453.12Z" fill="#fff"/><path d="M436.669,458.149a1.924,1.924,0,0,0,1.576-.776l.182.655h1.284v-8.362h-1.575v1.793a3.654,3.654,0,0,0,.145,1.091,1.931,1.931,0,0,0-1.478-.581c-1.442,0-2.558,1.127-2.558,3.09C434.245,457.179,435.324,458.149,436.669,458.149Zm.388-4.993a2.115,2.115,0,0,1,1.079.291v3.042a1.566,1.566,0,0,1-1.1.509c-.752,0-1.2-.534-1.2-1.952C435.833,453.665,436.306,453.156,437.057,453.156Z" fill="#fff"/><path d="M443.831,458.149a4.867,4.867,0,0,0,2.243-.582l-.3-1.114a3.983,3.983,0,0,1-1.745.5,1.347,1.347,0,0,1-1.527-1.466h3.7v-.691c0-1.491-.7-2.823-2.5-2.823-1.9,0-2.788,1.248-2.788,3.077C440.91,457.01,442,458.149,443.831,458.149Zm-.218-5.017c.824,0,1.055.654,1.055,1.418H442.5C442.5,453.847,442.825,453.132,443.613,453.132Z" fill="#fff"/><path d="M380.065,469.289c-.655,0-.958-.073-.958-.57v-6.7h-1.563V468.8c0,1.054.436,1.7,1.648,1.7a4.972,4.972,0,0,0,.873-.1Z" fill="#fff"/><path d="M383.057,466.841c-1.429,0-2.241.654-2.241,1.757a1.842,1.842,0,0,0,1.987,1.9,2.129,2.129,0,0,0,1.733-.824l.218.7h1.079v-3.769c0-1.515-.727-2.291-2.412-2.291a5.986,5.986,0,0,0-2.339.485l.4,1.127a4.3,4.3,0,0,1,1.782-.4c.6,0,1.042.242,1.042,1.006v.3Zm1.249,2.181a1.77,1.77,0,0,1-1.055.4.789.789,0,0,1-.884-.872c0-.449.3-.764.957-.764h.982Z" fill="#fff"/><path d="M388.765,469.374a2.756,2.756,0,0,1-1.405-.412l-.328,1.1a3.778,3.778,0,0,0,1.782.436c1.539,0,2.339-.836,2.339-1.915,0-1.939-2.569-1.66-2.569-2.582,0-.339.266-.545.812-.545a3.538,3.538,0,0,1,1.43.3l.218-1.151a4.755,4.755,0,0,0-1.673-.291c-1.6,0-2.266.788-2.266,1.66,0,2.025,2.533,1.673,2.533,2.739C389.638,469.083,389.286,469.374,388.765,469.374Z" fill="#fff"/><path d="M398.594,463.484a3.417,3.417,0,0,1,2.011.57l.606-1.285a5.12,5.12,0,0,0-2.787-.691c-2.315,0-3.539,1.624-3.539,4.169,0,2.727,1.236,4.254,3.539,4.254a4.831,4.831,0,0,0,2.811-.873l-.509-1.284a3.8,3.8,0,0,1-2.157.751c-1.333,0-2.011-.969-2.011-2.86C396.558,464.441,397.236,463.484,398.594,463.484Z" fill="#fff"/><path d="M403.6,468.053v-3.612h-1.575v3.6c0,1.637.678,2.461,2.157,2.461a2.334,2.334,0,0,0,1.854-.849l.242.728h1.043v-5.939h-1.612v4.5a1.905,1.905,0,0,1-1.066.351C403.925,469.289,403.6,468.962,403.6,468.053Z" fill="#fff"/><path d="M411.172,469.289c-.654,0-.957-.073-.957-.57v-6.7h-1.563V468.8c0,1.054.436,1.7,1.648,1.7a4.953,4.953,0,0,0,.872-.1Z" fill="#fff"/><path d="M412.65,463.411v1.03h-.884v1.127h.884v2.945c0,1.491.691,1.988,1.745,1.988a3.4,3.4,0,0,0,1.6-.4l-.242-1.163a2.14,2.14,0,0,1-.909.218.6.6,0,0,1-.63-.679v-2.909H415.8v-1.127h-1.588V462.9Z" fill="#fff"/><path d="M419.061,470.5a2.334,2.334,0,0,0,1.854-.849l.243.728H422.2v-5.939h-1.612v4.5a1.9,1.9,0,0,1-1.066.351c-.715,0-1.043-.327-1.043-1.236v-3.612H416.9v3.6C416.9,469.677,417.583,470.5,419.061,470.5Z" fill="#fff"/><path d="M423.509,470.38h1.575v-4.315a1.712,1.712,0,0,1,1.066-.4,2.694,2.694,0,0,1,.74.1l.036-1.345a2.7,2.7,0,0,0-.691-.085,1.591,1.591,0,0,0-1.418.909h-.036l-.17-.8h-1.1Z" fill="#fff"/><path d="M427.714,464.8l.4,1.127a4.289,4.289,0,0,1,1.781-.4c.606,0,1.042.242,1.042,1.006v.3h-1.248c-1.43,0-2.242.654-2.242,1.757a1.843,1.843,0,0,0,1.988,1.9,2.126,2.126,0,0,0,1.732-.824l.218.7h1.079v-3.769c0-1.515-.727-2.291-2.411-2.291A5.986,5.986,0,0,0,427.714,464.8Zm3.223,4.217a1.77,1.77,0,0,1-1.054.4.79.79,0,0,1-.885-.872c0-.449.3-.764.958-.764h.981Z" fill="#fff"/><path d="M435.4,469.374a2.763,2.763,0,0,1-1.406-.412l-.327,1.1a3.774,3.774,0,0,0,1.781.436c1.54,0,2.339-.836,2.339-1.915,0-1.939-2.569-1.66-2.569-2.582,0-.339.267-.545.812-.545a3.538,3.538,0,0,1,1.43.3l.218-1.151A4.745,4.745,0,0,0,436,464.32c-1.6,0-2.267.788-2.267,1.66,0,2.025,2.534,1.673,2.534,2.739C436.27,469.083,435.918,469.374,435.4,469.374Z" fill="#fff"/><path d="M440.487,468.671h-1.6V470.2l.376.182c0,.569-.158.775-.376.823v.825c1.018-.109,1.6-.533,1.6-1.551Z" fill="#fff"/><path d="M377.544,474.369v6.787c0,1.054.436,1.7,1.648,1.7a4.973,4.973,0,0,0,.873-.1v-1.114c-.655,0-.958-.073-.958-.57v-6.7Z" fill="#fff"/><path d="M383.057,479.193c-1.429,0-2.241.654-2.241,1.757a1.842,1.842,0,0,0,1.987,1.9,2.129,2.129,0,0,0,1.733-.824l.218.7h1.079v-3.769c0-1.514-.727-2.29-2.412-2.29a6.005,6.005,0,0,0-2.339.484l.4,1.128a4.283,4.283,0,0,1,1.782-.4c.6,0,1.042.242,1.042,1.006v.3Zm1.249,2.181a1.776,1.776,0,0,1-1.055.4.789.789,0,0,1-.884-.872c0-.449.3-.764.957-.764h.982Z" fill="#fff"/><path d="M391.153,480.938c0-1.939-2.569-1.661-2.569-2.582,0-.339.266-.545.812-.545a3.538,3.538,0,0,1,1.43.3l.218-1.152a4.779,4.779,0,0,0-1.673-.29c-1.6,0-2.266.787-2.266,1.66,0,2.024,2.533,1.672,2.533,2.739,0,.363-.352.654-.873.654a2.756,2.756,0,0,1-1.405-.412l-.328,1.1a3.767,3.767,0,0,0,1.782.436C390.353,482.852,391.153,482.016,391.153,480.938Z" fill="#fff"/><path d="M399.369,474.551h-2.642l-2.218,8.18h1.551l.437-1.842h2.812l.424,1.842h1.781Zm-2.581,5.054.9-3.66h.5l.836,3.66Z" fill="#fff"/><path d="M403.683,477.593h-.036l-.17-.8h-1.1v5.938h1.576v-4.314a1.71,1.71,0,0,1,1.066-.4,2.648,2.648,0,0,1,.739.1l.037-1.346a2.716,2.716,0,0,0-.691-.084A1.591,1.591,0,0,0,403.683,477.593Z" fill="#fff"/><path d="M408.906,482.852a3.419,3.419,0,0,0,1.6-.4l-.243-1.164a2.137,2.137,0,0,1-.909.218.594.594,0,0,1-.63-.678V477.92h1.588v-1.127h-1.588v-1.539l-1.563.509v1.03h-.885v1.127h.885v2.945C407.161,482.356,407.852,482.852,408.906,482.852Z" fill="#fff"/><path d="M416.274,479.495c0-1.49-.7-2.823-2.5-2.823-1.9,0-2.788,1.248-2.788,3.078,0,1.964,1.091,3.1,2.921,3.1a4.88,4.88,0,0,0,2.242-.581l-.3-1.115a3.984,3.984,0,0,1-1.745.5,1.347,1.347,0,0,1-1.527-1.467h3.7Zm-3.7-.242c0-.7.327-1.418,1.115-1.418.824,0,1.054.655,1.054,1.418Z" fill="#fff"/><path d="M419.025,481.725a2.756,2.756,0,0,1-1.4-.412l-.328,1.1a3.767,3.767,0,0,0,1.782.436c1.539,0,2.339-.836,2.339-1.914,0-1.939-2.57-1.661-2.57-2.582,0-.339.267-.545.813-.545a3.53,3.53,0,0,1,1.429.3l.219-1.152a4.779,4.779,0,0,0-1.673-.29c-1.6,0-2.266.787-2.266,1.66,0,2.024,2.533,1.672,2.533,2.739C419.9,481.434,419.546,481.725,419.025,481.725Z" fill="#fff"/><path d="M429.06,476.793l-1.273,4.981h-.024l-1.261-4.981h-1.781l1.769,6,1.1-.194-.048.17c-.219.763-.631,1.2-1.261,1.2a2.01,2.01,0,0,1-1.1-.425h-.145l-.5,1.079a3.072,3.072,0,0,0,1.672.594c1.224,0,2.085-.63,2.594-2.339l1.83-6.084Z" fill="#fff"/><path d="M439.2,479.495c0-1.49-.7-2.823-2.5-2.823-1.9,0-2.787,1.248-2.787,3.078,0,1.964,1.091,3.1,2.92,3.1a4.881,4.881,0,0,0,2.243-.581l-.3-1.115a3.984,3.984,0,0,1-1.745.5,1.347,1.347,0,0,1-1.527-1.467h3.7Zm-3.7-.242c0-.7.328-1.418,1.115-1.418.824,0,1.055.655,1.055,1.418Z" fill="#fff"/><path d="M441.977,481.071v-6.7h-1.563v6.787c0,1.054.436,1.7,1.649,1.7a4.955,4.955,0,0,0,.872-.1v-1.114C442.281,481.641,441.977,481.568,441.977,481.071Z" fill="#fff"/><path d="M380.052,486.9h-2.484v8.18h1.588v-2.848h.9a2.813,2.813,0,0,0,3.115-2.775C383.167,487.7,381.725,486.9,380.052,486.9Zm-.036,4.084h-.86v-2.739h.86c.909,0,1.466.436,1.466,1.272A1.351,1.351,0,0,1,380.016,490.987Z" fill="#fff"/><path d="M385.772,491.545c-1.43,0-2.242.654-2.242,1.756a1.843,1.843,0,0,0,1.988,1.9,2.129,2.129,0,0,0,1.733-.824l.218.7h1.079v-3.769c0-1.515-.727-2.29-2.412-2.29a6.005,6.005,0,0,0-2.339.484l.4,1.128a4.279,4.279,0,0,1,1.782-.4c.605,0,1.042.243,1.042,1.006v.3Zm1.249,2.181a1.777,1.777,0,0,1-1.055.4.79.79,0,0,1-.884-.873c0-.449.3-.764.957-.764h.982Z" fill="#fff"/><path d="M392.123,495.2a3.4,3.4,0,0,0,1.6-.4l-.242-1.163a2.144,2.144,0,0,1-.909.218.6.6,0,0,1-.63-.679v-2.908h1.587v-1.127h-1.587v-1.54l-1.563.51v1.03h-.885v1.127h.885v2.945C390.378,494.707,391.068,495.2,392.123,495.2Z" fill="#fff"/><path d="M398.109,490.466l.037-1.346a2.707,2.707,0,0,0-.691-.085,1.589,1.589,0,0,0-1.418.909H396l-.169-.8h-1.1v5.938H396.3v-4.314a1.7,1.7,0,0,1,1.066-.4A2.648,2.648,0,0,1,398.109,490.466Z" fill="#fff"/><rect width="1.6" height="1.442" transform="translate(399.503 486.721)" fill="#fff"/><path d="M398.86,490.138l.691.145v4.8h1.575v-5.938H398.86Z" fill="#fff"/><path d="M411.488,495.083v-3.672c0-1.5-.5-2.387-2.193-2.387a2.325,2.325,0,0,0-1.794.836,1.9,1.9,0,0,0-1.854-.836,2.228,2.228,0,0,0-1.757.811l-.267-.69h-1.067v5.938h1.588V490.6a1.8,1.8,0,0,1,1.006-.364c.739,0,1.066.425,1.066,1.321v3.527h1.6v-3.672a4.211,4.211,0,0,0-.061-.812,1.834,1.834,0,0,1,1.006-.364c.74,0,1.115.425,1.115,1.321v3.527Z" fill="#fff"/><path d="M418.105,492.1a2.767,2.767,0,0,0-2.788-3.078c-1.817,0-2.787,1.332-2.787,3.078,0,2.036,1.006,3.1,2.787,3.1S418.105,494.126,418.105,492.1Zm-2.788,1.939c-.775,0-1.151-.557-1.151-1.939,0-1.418.412-1.927,1.151-1.927s1.164.5,1.164,1.927S416.093,494.041,415.317,494.041Z" fill="#fff"/><path d="M422.977,491.556v3.527h1.611v-3.672c0-1.5-.594-2.387-2.1-2.387a2.463,2.463,0,0,0-1.879.8l-.242-.678H419.28v5.938h1.588V490.6a1.917,1.917,0,0,1,1.042-.364C422.637,490.235,422.977,490.66,422.977,491.556Z" fill="#fff"/><path d="M425.678,490.138l.691.145v4.8h1.575v-5.938h-2.266Z" fill="#fff"/><rect width="1.6" height="1.442" transform="translate(426.321 486.721)" fill="#fff"/><path d="M431.932,489.024c-1.818,0-2.788,1.332-2.788,3.078,0,2.036,1.006,3.1,2.788,3.1s2.787-1.078,2.787-3.1A2.766,2.766,0,0,0,431.932,489.024Zm0,5.017c-.776,0-1.152-.557-1.152-1.939,0-1.418.412-1.927,1.152-1.927s1.163.5,1.163,1.927S432.707,494.041,431.932,494.041Z" fill="#fff"/></g></svg>